<?xml version="1.0" encoding="UTF-8" standalone="no"?>
<!-- Created with Inkscape (http://www.inkscape.org/) -->

<svg
   xmlns:dc="http://purl.org/dc/elements/1.1/"
   xmlns:cc="http://creativecommons.org/ns#"
   xmlns:rdf="http://www.w3.org/1999/02/22-rdf-syntax-ns#"
   xmlns:svg="http://www.w3.org/2000/svg"
   xmlns="http://www.w3.org/2000/svg"
   xmlns:sodipodi="http://sodipodi.sourceforge.net/DTD/sodipodi-0.dtd"
   xmlns:inkscape="http://www.inkscape.org/namespaces/inkscape"
   width="343pt"
   height="340pt"
   viewBox="0 0 343 340"
   id="svg4248"
   version="1.1"
   inkscape:version="0.91 r13725"
   sodipodi:docname="tomadaSuperior.svg">
  <defs
     id="defs4250">
    <filter
       inkscape:collect="always"
       style="color-interpolation-filters:sRGB"
       id="filter4231"
       x="-0.024"
       width="1.048"
       y="-0.024"
       height="1.048">
      <feGaussianBlur
         inkscape:collect="always"
         stdDeviation="2.8"
         id="feGaussianBlur4233" />
    </filter>
    <filter
       inkscape:collect="always"
       style="color-interpolation-filters:sRGB"
       id="filter4276"
       x="-0.056780621"
       width="1.1135612"
       y="-0.063606391"
       height="1.1272128">
      <feGaussianBlur
         inkscape:collect="always"
         stdDeviation="0.47317184"
         id="feGaussianBlur4278" />
    </filter>
    <filter
       inkscape:collect="always"
       style="color-interpolation-filters:sRGB"
       id="filter4362"
       x="-0.22201172"
       width="1.4440234"
       y="-0.034687214"
       height="1.0693744">
      <feGaussianBlur
         inkscape:collect="always"
         stdDeviation="0.18500976"
         id="feGaussianBlur4364" />
    </filter>
    <filter
       inkscape:collect="always"
       style="color-interpolation-filters:sRGB"
       id="filter4384"
       x="-0.059999996"
       width="1.12"
       y="-0.060000004"
       height="1.12">
      <feGaussianBlur
         inkscape:collect="always"
         stdDeviation="0.7705567"
         id="feGaussianBlur4386" />
    </filter>
  </defs>
  <sodipodi:namedview
     pagecolor="#ffffff"
     bordercolor="#666666"
     borderopacity="1.0"
     inkscape:pageopacity="0.0"
     inkscape:pageshadow="2"
     inkscape:zoom="1"
     inkscape:cx="122.79442"
     inkscape:cy="255.09895"
     inkscape:document-units="pt"
     inkscape:current-layer="layer1"
     id="namedview4252"
     showgrid="false"
     inkscape:window-width="1920"
     inkscape:window-height="1016"
     inkscape:window-x="0"
     inkscape:window-y="28"
     inkscape:window-maximized="1">
    <inkscape:grid
       type="xygrid"
       id="grid4797" />
  </sodipodi:namedview>
  <metadata
     id="metadata4254">
    <rdf:RDF>
      <cc:Work
         rdf:about="">
        <dc:format>image/svg+xml</dc:format>
        <dc:type
           rdf:resource="http://purl.org/dc/dcmitype/StillImage" />
        <dc:title></dc:title>
      </cc:Work>
    </rdf:RDF>
  </metadata>
  <g
     inkscape:label="Layer 1"
     inkscape:groupmode="layer"
     id="layer1">
    <rect
       style="opacity:0.65;fill:#000000;fill-opacity:1;stroke:none;stroke-width:2;stroke-linecap:round;stroke-linejoin:round;stroke-miterlimit:4;stroke-dasharray:none;stroke-opacity:1;filter:url(#filter4231)"
       id="rect4810-7"
       width="280"
       height="280"
       x="31.5"
       y="28.5"
       rx="7.5675673"
       ry="9.032258" />
    <rect
       style="opacity:1;fill:#ffffff;fill-opacity:1;stroke:none;stroke-width:2;stroke-linecap:round;stroke-linejoin:round;stroke-miterlimit:4;stroke-dasharray:none;stroke-opacity:1"
       id="rect4810"
       width="280"
       height="280"
       x="31.5"
       y="28.5"
       rx="7.5675673"
       ry="9.032258" />
    <rect
       style="opacity:1;fill:none;fill-opacity:1;stroke:#ffffff;stroke-width:5;stroke-linecap:round;stroke-linejoin:round;stroke-miterlimit:4;stroke-dasharray:none;stroke-opacity:1"
       id="rect5697"
       width="384.79999"
       height="278.39999"
       x="428"
       y="118.4"
       rx="7.5675683"
       ry="9.0322399" />
    <circle
       style="opacity:1;fill:none;fill-opacity:1;stroke:#970c00;stroke-width:0.82299995;stroke-linecap:round;stroke-linejoin:round;stroke-miterlimit:4;stroke-dasharray:none;stroke-opacity:1"
       id="path4172"
       cx="286.70001"
       cy="50.200012"
       r="15" />
    <path
       style="opacity:1;fill:#970c00;fill-opacity:1;stroke:none;stroke-width:2;stroke-linecap:round;stroke-linejoin:round;stroke-miterlimit:4;stroke-dasharray:none;stroke-opacity:1"
       d="m 292.88753,42.446253 -1.4325,1.432499 a 8,8 0 0 1 3.245,6.421248 8,8 0 0 1 -8,8 8,8 0 0 1 -8,-8 8,8 0 0 1 3.24501,-6.421248 l -1.42626,-1.426253 A 10,10 0 0 0 276.70003,50.3 a 10,10 0 0 0 10,10 10,10 0 0 0 10,-10 10,10 0 0 0 -3.8125,-7.853747 z"
       id="path4174-4"
       inkscape:connector-curvature="0" />
    <path
       style="fill:none;fill-rule:evenodd;stroke:#970c00;stroke-width:2;stroke-linecap:butt;stroke-linejoin:miter;stroke-miterlimit:4;stroke-dasharray:none;stroke-opacity:1"
       d="m 286.70003,52.14 0,-12.8"
       id="path4203"
       inkscape:connector-curvature="0" />
    <path
       style="fill:#ff5041;fill-opacity:1;fill-rule:evenodd;stroke:#970c00;stroke-width:4.57938528;stroke-linecap:butt;stroke-linejoin:miter;stroke-miterlimit:4;stroke-dasharray:none;stroke-opacity:1"
       d="m 112.66046,191.32248 -25.168813,-24.44089 -3.598515,-83.454694 84.492378,2.088429 87.12285,84.603085 0.32139,7.4532 3.27712,76.00149 -84.49241,-2.08842 z"
       id="path4194"
       inkscape:connector-curvature="0"
       sodipodi:nodetypes="ccccccccc" />
    <path
       style="color:#000000;font-style:normal;font-variant:normal;font-weight:normal;font-stretch:normal;font-size:medium;line-height:normal;font-family:sans-serif;text-indent:0;text-align:start;text-decoration:none;text-decoration-line:none;text-decoration-style:solid;text-decoration-color:#000000;letter-spacing:normal;word-spacing:normal;text-transform:none;direction:ltr;block-progression:tb;writing-mode:lr-tb;baseline-shift:baseline;text-anchor:start;white-space:normal;clip-rule:nonzero;display:inline;overflow:visible;visibility:visible;opacity:0.75;isolation:auto;mix-blend-mode:normal;color-interpolation:sRGB;color-interpolation-filters:linearRGB;solid-color:#000000;solid-opacity:1;fill:#ff5041;fill-opacity:1;fill-rule:nonzero;stroke:none;stroke-width:0.82299995;stroke-linecap:round;stroke-linejoin:round;stroke-miterlimit:4;stroke-dasharray:none;stroke-dashoffset:0;stroke-opacity:1;color-rendering:auto;image-rendering:auto;shape-rendering:auto;text-rendering:auto;enable-background:accumulate;filter:url(#filter4384)"
       d="m 286.69922,34.789062 c -8.50666,0 -15.41016,6.903494 -15.41016,15.410157 0,8.506662 6.9035,15.412109 15.41016,15.412109 8.50666,0 15.41211,-6.905447 15.41211,-15.412109 0,-8.506663 -6.90545,-15.410157 -15.41211,-15.410157 z m 0,0.822266 c 8.06188,0 14.58984,6.526011 14.58984,14.587891 0,8.06188 -6.52796,14.589843 -14.58984,14.589843 -8.06188,0 -14.58789,-6.527963 -14.58789,-14.589843 0,-8.06188 6.52601,-14.587891 14.58789,-14.587891 z"
       id="path4172-1"
       inkscape:connector-curvature="0" />
    <path
       style="opacity:0.75;fill:#ff5041;fill-opacity:1;stroke:none;stroke-width:2;stroke-linecap:round;stroke-linejoin:round;stroke-miterlimit:4;stroke-dasharray:none;stroke-opacity:1;filter:url(#filter4276)"
       d="m 292.88753,42.446252 -1.4325,1.432499 a 8,8 0 0 1 3.245,6.421248 8,8 0 0 1 -8,8 8,8 0 0 1 -8,-8 8,8 0 0 1 3.24501,-6.421248 l -1.42626,-1.426253 a 10,10 0 0 0 -3.81875,7.847501 10,10 0 0 0 10,10 10,10 0 0 0 10,-10 10,10 0 0 0 -3.8125,-7.853747 z"
       id="path4174-4-3"
       inkscape:connector-curvature="0" />
    <path
       style="color:#000000;font-style:normal;font-variant:normal;font-weight:normal;font-stretch:normal;font-size:medium;line-height:normal;font-family:sans-serif;text-indent:0;text-align:start;text-decoration:none;text-decoration-line:none;text-decoration-style:solid;text-decoration-color:#000000;letter-spacing:normal;word-spacing:normal;text-transform:none;direction:ltr;block-progression:tb;writing-mode:lr-tb;baseline-shift:baseline;text-anchor:start;white-space:normal;clip-rule:nonzero;display:inline;overflow:visible;visibility:visible;opacity:0.75;isolation:auto;mix-blend-mode:normal;color-interpolation:sRGB;color-interpolation-filters:linearRGB;solid-color:#000000;solid-opacity:1;fill:#ff5041;fill-opacity:1;fill-rule:evenodd;stroke:none;stroke-width:2;stroke-linecap:butt;stroke-linejoin:miter;stroke-miterlimit:4;stroke-dasharray:none;stroke-dashoffset:0;stroke-opacity:1;color-rendering:auto;image-rendering:auto;shape-rendering:auto;text-rendering:auto;enable-background:accumulate;filter:url(#filter4362)"
       d="m 285.69922,39.339844 0,12.800781 2,0 0,-12.800781 -2,0 z"
       id="path4203-6"
       inkscape:connector-curvature="0" />
    <circle
       style="opacity:1;fill:#000000;fill-opacity:1;stroke:none;stroke-width:3;stroke-linecap:round;stroke-linejoin:round;stroke-miterlimit:4;stroke-dasharray:none;stroke-opacity:1"
       id="path4388"
       cx="177.71774"
       cy="-9.3606825"
       r="14"
       transform="matrix(0.70846978,0.70574115,-0.70574115,0.70846978,0,0)" />
    <circle
       style="opacity:1;fill:#000000;fill-opacity:1;stroke:none;stroke-width:3;stroke-linecap:round;stroke-linejoin:round;stroke-miterlimit:4;stroke-dasharray:none;stroke-opacity:1"
       id="path4388-6"
       cx="241.71774"
       cy="6.6393142"
       r="14"
       transform="matrix(0.70846978,0.70574115,-0.70574115,0.70846978,0,0)" />
    <circle
       style="opacity:1;fill:#000000;fill-opacity:1;stroke:none;stroke-width:3;stroke-linecap:round;stroke-linejoin:round;stroke-miterlimit:4;stroke-dasharray:none;stroke-opacity:1"
       id="path4388-5"
       cx="305.71777"
       cy="-9.3606825"
       r="14"
       transform="matrix(0.70846978,0.70574115,-0.70574115,0.70846978,0,0)" />
  </g>
</svg>
